<svg viewBox="0 0 28 28" xmlns="http://www.w3.org/2000/svg"><g fill="#F2D48F" fill-rule="evenodd"><path d="M11 4c.55 0 1 .393 1 .875v5.25c0 .481-.45.875-1 .875s-1-.394-1-.875v-5.25c0-.482.45-.875 1-.875zM17 4c-.55 0-1 .393-1 .875v5.25c0 .481.45.875 1 .875s1-.394 1-.875v-5.25C18 4.393 17.55 4 17 4"/><path d="M21.286 21.025c0 .701-.579 1.275-1.286 1.275H8a1.284 1.284 0 0 1-1.286-1.275V9.975C6.714 9.274 7.293 8.7 8 8.7h12c.707 0 1.286.574 1.286 1.275v11.05zM20.429 7H7.57C6.157 7 5 8.147 5 9.55v11.9C5 22.853 6.157 24 7.571 24H20.43C21.843 24 23 22.853 23 21.45V9.55C23 8.147 21.843 7 20.429 7z"/><path d="M6 14h16v-2H6z"/></g></svg>