<svg viewBox="0 0 28 28" xmlns="http://www.w3.org/2000/svg"><path d="M23.546 21.106l-1.763-.627c.172-.891.132-2.049-.485-3.458.126-.543.25-1.673-.31-3.234.613-.654 1.24-1.884.526-3.53A6.09 6.09 0 0 0 22.55 8.96c1.254 2.11 3.246 6.714.997 12.146zM20.181 9.468c-.178.109-1.382.8-3.036.66a.732.732 0 0 0-.785.684.74.74 0 0 0 .667.804 6.804 6.804 0 0 0 3.24-.53c.402 1.209-.42 1.773-.53 1.842a.719.719 0 0 0-.126.102c-.47.174-1.56.531-2.523.507a.742.742 0 0 0-.744.73.738.738 0 0 0 .712.763l.115.001c.945 0 1.91-.253 2.54-.459.306.993.25 1.688.188 2.017-.412.223-1.413.675-2.855.733a.739.739 0 0 0-.7.775.737.737 0 0 0 .728.717h.028a8.258 8.258 0 0 0 3.056-.697c.384 1.132.275 1.982.074 2.547-.007.015-.015.03-.02.046-.004.009-.005.019-.008.028-.092.24-.2.425-.287.55h-4.687V6.256c.179-.088.353-.182.523-.275.509-.278.992-.542 1.392-.478 2.672.423 3.997 1.6 4.404 2.03-.091.714-.92 1.58-1.366 1.935zM9.085 21.288a2.656 2.656 0 0 1-.287-.55l-.007-.028c-.006-.017-.014-.03-.02-.046-.202-.565-.311-1.415.073-2.547a8.256 8.256 0 0 0 3.056.697h.028c.39 0 .712-.315.728-.717a.74.74 0 0 0-.7-.775c-1.442-.058-2.443-.51-2.855-.733-.063-.33-.118-1.024.188-2.017.63.206 1.595.46 2.54.46l.115-.002c.402-.01.72-.35.712-.762a.742.742 0 0 0-.744-.73c-.963.023-2.053-.334-2.523-.508a.722.722 0 0 0-.126-.102c-.11-.069-.932-.633-.53-1.842a6.8 6.8 0 0 0 3.24.53.74.74 0 0 0 .667-.804.732.732 0 0 0-.785-.684c-1.654.14-2.858-.551-3.036-.66-.447-.355-1.275-1.22-1.366-1.934.406-.431 1.733-1.608 4.404-2.03.4-.065.883.199 1.392.477.17.093.344.187.523.275v15.032H9.085zm-1.383-4.267c-.617 1.409-.657 2.567-.485 3.458l-1.763.627c-2.25-5.432-.257-10.037.998-12.146.31.54.717.991 1.034 1.297-.713 1.646-.087 2.876.526 3.53-.559 1.561-.436 2.69-.31 3.234zM22.844 6.789c-.192-.255-1.737-2.17-5.479-2.761-.885-.14-1.635.272-2.3.636a9.363 9.363 0 0 1-.565.287 9.48 9.48 0 0 1-.566-.287c-.664-.364-1.414-.776-2.299-.636-3.742.592-5.287 2.506-5.478 2.761-.238.298-5.647 7.238-1.75 15.569a.728.728 0 0 0 .657.423c.056 0 .112-.015.167-.029l.084.245c.146.431.61.66 1.03.51l1.557-.554a.805.805 0 0 0 .406-.33.697.697 0 0 0 .115.075v.473c0 .456.365.829.81.829h5.185c.028 0 .055-.005.082-.008.027.003.054.008.082.008h5.186a.822.822 0 0 0 .809-.83v-.472c.04-.02.079-.046.115-.074a.805.805 0 0 0 .407.329l1.557.555c.42.15.883-.08 1.03-.51l.082-.246c.056.014.112.03.168.03a.727.727 0 0 0 .656-.424c3.899-8.33-1.511-15.271-1.748-15.569z" fill="#E1A4C4" fill-rule="evenodd"/></svg>