<svg viewBox="0 0 28 28" xmlns="http://www.w3.org/2000/svg"><path d="M14 20.83l-2.795-2.794 6.83-6.83L20.83 14A4.828 4.828 0 1 1 14 20.83zM9.343 8.1c.343.343.343.9 0 1.242a1.757 1.757 0 0 0 0 2.483.878.878 0 1 1-1.242 1.242 3.515 3.515 0 0 1 0-4.967.88.88 0 0 1 1.242 0zM14 7.17l2.794 2.794-6.83 6.83L7.171 14A4.83 4.83 0 0 1 14 7.17zm5.277 2.794l-1.241-1.242L15.24 5.93A6.585 6.585 0 0 0 5.93 15.24l6.829 6.83a6.587 6.587 0 0 0 9.313 0 6.584 6.584 0 0 0 0-9.313l-2.794-2.794z" fill="#DFC79C" fill-rule="evenodd"/></svg>