<svg viewBox="0 0 28 28" xmlns="http://www.w3.org/2000/svg"><path d="M21.952 13.53H19.07c0-2.497-.916-4.793-2.429-6.555 2.804.902 4.98 3.195 5.69 6.065a.392.392 0 0 1-.379.49zm-7.172 0h-4.29c0-2.717 1.278-5.228 3.27-6.797a.396.396 0 0 1 .481 0c1.99 1.57 3.27 4.08 3.27 6.797h-2.73zm-8.732 0a.39.39 0 0 1-.378-.49c.71-2.87 2.885-5.163 5.69-6.065a10.041 10.041 0 0 0-2.43 6.555H6.048zm17.926-.273C23.111 8.56 18.974 5 14 5s-9.11 3.56-9.975 8.257c-.174.95.568 1.825 1.54 1.825h7.655v6.543c0 .415-.306.792-.722.822a.78.78 0 0 1-.838-.76c-.007-.379-.279-.722-.656-.78a.78.78 0 0 0-.904.767A2.334 2.334 0 0 0 12.512 24c1.28-.038 2.268-1.15 2.268-2.423v-6.494h7.655c.972 0 1.714-.875 1.54-1.825z" fill="#C1A4E0" fill-rule="evenodd"/></svg>