<svg xmlns="http://www.w3.org/2000/svg" width="32" height="32" viewBox="0 0 32 32"><defs><style>.cls-1{fill:#606060;opacity:0;}.cls-2{fill:#fff;}</style></defs><title>icon_空气</title><g id="图层_2" data-name="图层 2"><g id="图层_1-2" data-name="图层 1"><rect class="cls-1" width="32" height="32"/><path class="cls-2" d="M6.4,9.74h0l-.09.12a10.22,10.22,0,0,0-1.5,2.67,6.43,6.43,0,0,0-.22.61,10.38,10.38,0,0,0-.46,3.07A10.22,10.22,0,0,0,5,20.29a.62.62,0,0,0,1.14,0c3.85-9.62,16-15.6,16-15.59-.25.46-11.92,6-16.54,24.42a1.23,1.23,0,0,0,.82,1.4l1.1.39A1.25,1.25,0,0,0,9.1,29.79c0-.78.11-1.77.26-2.85a1.26,1.26,0,0,1,1.67-1,9.67,9.67,0,0,0,3.06.5,10,10,0,0,0,9.74-8h0v0A10.35,10.35,0,0,0,24,17.2C25.29,9,26.72,4.87,27.74,2.84A1.27,1.27,0,0,0,26.56,1C14.49,1.58,8.88,6.35,6.4,9.74Z"/></g></g></svg>