<svg width="22" height="26" xmlns="http://www.w3.org/2000/svg" xmlns:xlink="http://www.w3.org/1999/xlink"><defs><path d="M20 26H2c-1.1 0-2-.9-2-2V2C0 .9.9 0 2 0h18c1.1 0 2 .9 2 2v22c0 1.1-.9 2-2 2" id="b"/><filter x="-13.6%" y="-11.5%" width="127.3%" height="123.1%" filterUnits="objectBoundingBox" id="a"><feOffset in="SourceAlpha" result="shadowOffsetOuter1"/><feGaussianBlur stdDeviation="1" in="shadowOffsetOuter1" result="shadowBlurOuter1"/><feColorMatrix values="0 0 0 0 0.217376503 0 0 0 0 0.237905895 0 0 0 0 0.26264881 0 0 0 0.41686481 0" in="shadowBlurOuter1"/></filter></defs><g fill="none" fill-rule="evenodd"><g><use fill="#000" filter="url(#a)" xlink:href="#b"/><use fill="#FEFEFE" xlink:href="#b"/></g><path d="M19 20H3c-.55 0-1-.45-1-1V3c0-.55.45-1 1-1h16c.55 0 1 .45 1 1v16c0 .55-.45 1-1 1" fill="#9CD7EF"/><path d="M18 6.5a2.5 2.5 0 1 1-5 0 2.5 2.5 0 0 1 5 0" fill="#F4C248"/><path d="M14.712 11.828L2.372 19.76c.175.143.388.24.628.24h16c.55 0 1-.45 1-1v-5l-2.774-2.08a2.203 2.203 0 0 0-2.514-.092" fill="#A2CE74"/><path d="M4.992 10.26L2 14v5c0 .55.45 1 1 1h16c.55 0 1-.45 1-1v-1L7.357 9.873a1.789 1.789 0 0 0-2.365.387" fill="#6BB667"/></g></svg>