<?xml version="1.0" encoding="UTF-8"?>
<svg width="20px" height="20px" viewBox="0 0 20 20" version="1.1" xmlns="http://www.w3.org/2000/svg" xmlns:xlink="http://www.w3.org/1999/xlink">
    <!-- Generator: Sketch 47 (45396) - http://www.bohemiancoding.com/sketch -->
    <title>icon_关闭</title>
    <desc>Created with Sketch.</desc>
    <defs></defs>
    <g id="Page-1" stroke="none" stroke-width="1" fill="none" fill-rule="evenodd">
        <g id="空气质量" transform="translate(-282.000000, -177.000000)" fill="#FFFFFF">
            <g id="Group" transform="translate(282.000000, 177.000000)">
                <path d="M15.6660466,14.0472171 L11.6185434,9.99971384 L15.6660466,5.95335527 C16.1113178,5.50808413 16.1113178,4.77893833 15.6660466,4.33481185 C15.2196308,3.88839605 14.4927744,3.88839605 14.0463586,4.33481185 L10,8.38117041 L5.95364144,4.33481185 C5.50722564,3.88839605 4.7792245,3.88839605 4.33395336,4.33481185 C3.88868221,4.77893833 3.88868221,5.50808413 4.33395336,5.95335527 L8.38145657,9.99971384 L4.33395336,14.0472171 C3.88868221,14.4924882 3.88868221,15.2204893 4.33395336,15.6657605 C4.7792245,16.1110316 5.50722564,16.1110316 5.95364144,15.6657605 L10,11.6182573 L14.0463586,15.6657605 C14.4927744,16.1110316 15.2196308,16.1110316 15.6660466,15.6657605 C16.1113178,15.2204893 16.1113178,14.4924882 15.6660466,14.0472171" id="icon_关闭"></path>
            </g>
        </g>
    </g>
</svg>