<svg xmlns="http://www.w3.org/2000/svg" width="30" height="30" viewBox="0 0 30 30"><defs><style>.cls-1{fill:#515151;opacity:0;}.cls-2{fill:#fff;}</style></defs><title>icon_定位</title><g id="图层_2" data-name="图层 2"><g id="图层_1-2" data-name="图层 1"><rect class="cls-1" width="30" height="30"/><path class="cls-2" d="M24.91,5.13A12.14,12.14,0,0,0,10.79.76a12,12,0,0,0-8,11.63,11.64,11.64,0,0,0,2.65,7.51c2.15,2.82,4.41,5.57,6.63,8.34,1.81,2.26,3.8,2.33,5.64.13,2.43-2.92,4.85-5.87,7.15-8.91a12.24,12.24,0,0,0,0-14.32ZM23.6,18.47c-2.2,3.09-4.69,6-7.08,8.95-.89,1.09-1.94,1.36-2.92.14-2.47-3.06-5-6.09-7.32-9.26a8.67,8.67,0,0,1-1.92-5.91,10.62,10.62,0,0,1,19-6.7,10.41,10.41,0,0,1,.23,12.78Zm0,0"/><path class="cls-2" d="M14.76,7a5,5,0,0,0-5,5.24,5.2,5.2,0,0,0,5.2,5.36,5.38,5.38,0,0,0,5.42-5.43A5.3,5.3,0,0,0,14.76,7ZM15,16a3.7,3.7,0,0,1-3.71-3.86A3.62,3.62,0,0,1,15,8.52a3.64,3.64,0,0,1,3.72,3.81A3.72,3.72,0,0,1,15,16Zm0,0"/></g></g></svg>