<svg xmlns="http://www.w3.org/2000/svg" width="32" height="32" viewBox="0 0 32 32"><defs><style>.cls-1{fill:#606060;opacity:0;}.cls-2{fill:#fff;}</style></defs><title>icon_湿度</title><g id="图层_2" data-name="图层 2"><g id="图层_1-2" data-name="图层 1"><rect class="cls-1" width="32" height="32"/><path class="cls-2" d="M24.7,15.92h0L17.11,1.67a1.26,1.26,0,0,0-2.22,0L7.29,15.92h0a10.05,10.05,0,1,0,17.39,0ZM14.08,28.17a5,5,0,0,1-4.72-3.4v0l0-.09h0a1.23,1.23,0,0,1-.08-.38A1.26,1.26,0,0,1,10.5,23a1.24,1.24,0,0,1,1.18.89h0a2.5,2.5,0,0,0,2.39,1.76,1.26,1.26,0,0,1,0,2.51Z"/></g></g></svg>