<svg viewBox="0 0 28 28" xmlns="http://www.w3.org/2000/svg"><g fill="#A4ADE0" fill-rule="evenodd"><path d="M19.065 4H8.935a1.61 1.61 0 0 0-1.574 1.343L6 13h1.6l1.089-6.68a.805.805 0 0 1 .789-.684h9.044c.391 0 .725.29.79.684L20.4 13H22l-1.36-7.657A1.61 1.61 0 0 0 19.064 4M7 24c-.55 0-1-.27-1-.6v-1.8c0-.33.45-.6 1-.6s1 .27 1 .6v1.8c0 .33-.45.6-1 .6M21 24c-.55 0-1-.27-1-.6v-1.8c0-.33.45-.6 1-.6s1 .27 1 .6v1.8c0 .33-.45.6-1 .6"/><path d="M23.308 19.273c0 .5-.381.909-.846.909H5.538c-.465 0-.846-.41-.846-.91v-4.545c0-.5.381-.909.846-.909h16.924c.465 0 .846.409.846.91v4.545zm0-7.273H4.692C3.762 12 3 12.818 3 13.818v6.364c0 1 .762 1.818 1.692 1.818h18.616c.93 0 1.692-.819 1.692-1.818v-6.364c0-1-.762-1.818-1.692-1.818z"/><path d="M9 17a1 1 0 1 1-2 0 1 1 0 0 1 2 0M21 17a1 1 0 1 1-2 0 1 1 0 0 1 2 0M17.111 18H10.89C10.4 18 10 17.55 10 17s.4-1 .889-1h6.222c.489 0 .889.45.889 1s-.4 1-.889 1"/></g></svg>