<svg viewBox="0 0 28 28" xmlns="http://www.w3.org/2000/svg"><g fill="#B5E6A8" fill-rule="evenodd"><path d="M18.733 5.568H9.767A.77.77 0 0 1 9 4.801v-.035C9 4.344 9.345 4 9.767 4h8.966c.422 0 .767.344.767.766v.035a.77.77 0 0 1-.767.767M10.882 8.313h-.015a.744.744 0 0 1-.742-.742v-.867c0-.41.334-.744.742-.744h.015c.41 0 .743.335.743.744v.868a.745.745 0 0 1-.743.741M13.132 8.313h-.015a.744.744 0 0 1-.742-.742v-.867c0-.41.334-.744.742-.744h.015c.41 0 .743.335.743.744v.868a.745.745 0 0 1-.743.741M15.382 8.313h-.015a.744.744 0 0 1-.742-.742v-.867c0-.41.334-.744.742-.744h.015c.41 0 .743.335.743.744v.868a.745.745 0 0 1-.743.741M17.632 8.313h-.015a.744.744 0 0 1-.742-.742v-.867c0-.41.334-.744.742-.744h.015c.41 0 .743.335.743.744v.868a.745.745 0 0 1-.743.741M22.5 19.686c0 .433-.336.785-.75.785h-.86c-.323-1.134-1.326-1.962-2.515-1.962s-2.192.828-2.515 1.962h-1.235v-3.922h7.125c.414 0 .75.352.75.784v2.354zm-4.125 2.745c-.621 0-1.125-.527-1.125-1.177 0-.649.504-1.176 1.125-1.176s1.125.527 1.125 1.177-.504 1.177-1.125 1.177zm-3.214-11.373h2.974a.76.76 0 0 1 .736.632l.479 3.29h-4.618l.429-3.921zm-1.929 3.922H9.225l.74-3.362a.755.755 0 0 1 .718-.56h2.978l-.429 3.922zm-.107 5.49H11.14c-.323-1.133-1.326-1.96-2.515-1.96s-2.192.826-2.515 1.96h-.86c-.414 0-.75-.35-.75-.784v-.784h.75c.413 0 .75-.354.75-.785 0-.43-.337-.785-.75-.785H4.5c0-.431.336-.784.75-.784h7.875v3.923zm-4.5 1.962c-.621 0-1.125-.527-1.125-1.177s.504-1.177 1.125-1.177 1.125.527 1.125 1.177-.504 1.177-1.125 1.177zM22.5 14.98h-1.661l-.71-4.25c-.148-.724-.759-1.24-1.466-1.24h-8.532c-.669 0-1.258.463-1.442 1.136l-.975 4.353H4.5c-.829 0-1.5.702-1.5 1.569v3.922c0 .866.671 1.569 1.5 1.569h1.61C6.433 23.172 7.436 24 8.625 24s2.192-.828 2.515-1.96H15.86c.323 1.133 1.326 1.96 2.515 1.96s2.192-.828 2.515-1.96h1.61c.829 0 1.5-.703 1.5-1.57V16.55c0-.867-.671-1.569-1.5-1.569z"/></g></svg>