<svg viewBox="0 0 28 28" xmlns="http://www.w3.org/2000/svg"><path d="M22.59 21.078c-.01.01-.09.084-.414.133-.515.076-.643-.168-.68-.337l-2.147-8.151-.029-.103c-.401-1.366-.253-2.782-.091-3.635.354.429.603.771.697.96.271.548 1.067 3.406 1.395 5.151.17.898.511 2.445.786 3.687l.022.102c.16.719.427 1.92.453 2.113.008.057.007.08.009.08zM13.923 7.672c-.128.193-.272.413-.422.661-.137-.23-.278-.445-.42-.662-.486-.736-.82-1.243-.764-2.085.284-.091.7-.19 1.178-.19.48 0 .903.1 1.191.191.055.84-.279 1.348-.763 2.085zm-4.956.242c.624-.296 1.573-.756 2.109-1.016.192.582.51 1.065.82 1.536.296.45.63.957.904 1.611v11.61c-.432-.036-.92-.103-1.423-.195l-.035-.006c-.14-.026-.276-.054-.41-.082l-.351-.078a15.05 15.05 0 0 1-.979-.26c-.107-1.3-.382-5.572-.54-8.106.585-2.088.135-4.184-.095-5.014zm8.974 5.014c-.173 2.766-.44 6.907-.532 8.103l-.365.107a8.207 8.207 0 0 1-.248.065l-.148.036a15.979 15.979 0 0 1-2.434.415V10.022c.278-.654.618-1.17.894-1.588.31-.47.627-.953.819-1.536.914.444 1.64.794 2.109 1.016-.23.83-.68 2.927-.095 5.014zM5.502 20.89l-.005.022c-.024.116-.134.38-.672.3-.329-.05-.408-.126-.412-.126a.334.334 0 0 1 .005-.088c.021-.16.196-.952.381-1.79l.068-.31c.283-1.279.637-2.872.812-3.801.33-1.75 1.126-4.608 1.396-5.152.095-.191.344-.534.696-.96.16.847.308 2.25-.082 3.607l-.036.05-2.15 8.248zm18.332.838c.178-.334.183-.676.15-.92-.03-.219-.186-.925-.458-2.154l-.015-.068c-.319-1.436-.637-2.883-.8-3.745-.31-1.648-1.13-4.731-1.514-5.509-.339-.684-1.76-2.298-1.76-2.298s-.205-.112-.266-.137l-.025-.01c-.278-.119-1.754-.832-2.77-1.327l-.394-.76-.03-.097-.06-.042a.668.668 0 0 0-.141-.134l-.1-.064A5.295 5.295 0 0 0 13.495 4a5.226 5.226 0 0 0-2.13.456l-.1.047-.023.03a.694.694 0 0 0-.135.13l-.482.897c-1.2.584-2.452 1.188-2.75 1.318l-.046.02a.682.682 0 0 0-.178.106l-.08.074c-.33.357-1.431 1.576-1.767 2.254-.381.774-1.202 3.858-1.514 5.508-.164.871-.487 2.335-.803 3.76-.262 1.184-.436 1.977-.47 2.213-.033.242-.027.583.15.915-.052.302-.088.518-.098.59-.084.606.211 1.313 1.29 1.478 1.078.164 1.696-.52 1.823-1.145l.023-.132c.021-.09.045-.202.073-.336.355-.3.543-.69.597-.957l1.045-3.968c.284 4.354.324 4.434.383 4.553.055.115.15.212.306.304v.433a.7.7 0 0 0 .4.63c.072.033 1.766.822 4.498.822 2.739 0 4.417-.79 4.484-.822a.7.7 0 0 0 .402-.63v-.431a.716.716 0 0 0 .306-.303c.06-.125.098-.207.383-4.561l1.037 3.934c.076.372.298.732.606.993l.095.472c.127.625.781 1.307 1.824 1.143 1.358-.205 1.33-1.184 1.288-1.482-.01-.069-.045-.283-.097-.585z" fill="#E1A4C4" fill-rule="evenodd"/></svg>