<svg viewBox="0 0 28 28" xmlns="http://www.w3.org/2000/svg"><path d="M17.613 4a1.38 1.38 0 0 0-.592.133 1.45 1.45 0 0 0-.77.92c-.14.498-.811 1.027-1.778 1.027-.958 0-1.63-.525-1.775-1.02a1.451 1.451 0 0 0-.772-.908 1.386 1.386 0 0 0-1.171 0l-2.44 1.143c-.384.18-.932.559-1.354 1.34-.196.365-.604 1.122-2.939 14.499-.068.394.023.8.253 1.124.23.323.58.534.965.584L6.445 23a1.428 1.428 0 0 0 1.56-1.123c.19-.861.496-2.185.824-3.594.024 1.279.06 2.535.116 3.498.025.422.226.814.552 1.072.66.523 2.065 1.147 5.003 1.147 2.93 0 4.336-.625 5.001-1.149.328-.258.53-.65.554-1.075.056-.957.092-2.213.115-3.495.33 1.413.636 2.741.828 3.597.15.67.728 1.133 1.38 1.133.059 0 .119-.004.18-.011l1.202-.158c.386-.05.735-.261.965-.585.23-.323.321-.73.253-1.124C22.638 7.753 22.233 7 22.038 6.636c-.33-.612-.81-1.087-1.353-1.34L18.2 4.13A1.379 1.379 0 0 0 17.613 4m0 1.462l2.486 1.164c.156.073.454.264.7.718.182.34.787 2.626 2.783 14.049l-1.203.157c-.474-2.122-1.639-7.063-2.139-9.181l-.036-.153c-.08-.333-.371-.563-.68-.563a.597.597 0 0 0-.1.008c-.359.045-.628.36-.627.752.001.655.01 6.377-.157 9.277-.305.241-1.352.848-4.14.848-2.797 0-3.837-.605-4.14-.844-.177-3.079-.158-9.238-.157-9.3.001-.373-.268-.688-.616-.731a.666.666 0 0 0-.11-.01.712.712 0 0 0-.682.564c-.016.067-1.598 6.753-2.172 9.333l-1.205-.157C7.41 9.975 8.017 7.687 8.2 7.345c.246-.455.544-.646.701-.719l2.439-1.142c.347 1.18 1.616 2.058 3.132 2.058 1.527 0 2.802-.888 3.14-2.08" fill="#E1A4C4" fill-rule="evenodd"/></svg>