<svg viewBox="0 0 28 28" xmlns="http://www.w3.org/2000/svg"><g fill="#A3DFD4" fill-rule="evenodd"><path d="M21.643 17.48L17.48 21.64a.21.21 0 0 1-.34-.064 3.332 3.332 0 0 1 .653-3.785 3.332 3.332 0 0 1 3.785-.652.21.21 0 0 1 .064.34m-13.28-2.635c-.19-.19-.368-.386-.54-.584a10.777 10.777 0 0 0 3.93-2.51 10.782 10.782 0 0 0 2.51-3.929c.198.171.394.35.584.541 2.767 2.766 3.559 6.46 1.768 8.251-1.79 1.79-5.484.998-8.251-1.769m-1.768-8.25c1.383-1.384 3.903-1.22 6.254.2a9.14 9.14 0 0 1-6.053 6.052c-1.42-2.35-1.584-4.869-.201-6.253m17.209 10.137l-.118-.117a4.988 4.988 0 0 0-4.597-1.347c.192-.98.143-2.064-.147-3.17h1.576a.836.836 0 0 0 .834-.834.836.836 0 0 0-.834-.834h-2.192a11.123 11.123 0 0 0-.977-1.667h1.086a.836.836 0 0 0 .833-.833.836.836 0 0 0-.833-.834h-2.501l-.003.001c-3.411-3.34-8.095-4.099-10.515-1.68-2.441 2.441-1.65 7.19 1.768 10.608.528.527 1.089.983 1.666 1.384v2.207c0 .45.367.816.816.816H9.7a.819.819 0 0 0 .817-.816v-1.248c1.647.758 3.334 1.01 4.792.714a5.223 5.223 0 0 0 1.423 4.722.667.667 0 0 0 .944 0l6.128-6.128a.667.667 0 0 0 0-.944"/><path d="M10.273 8.102a.835.835 0 0 0-1.179-1.179.835.835 0 0 0 1.18 1.18"/></g></svg>