<svg viewBox="0 0 28 28" xmlns="http://www.w3.org/2000/svg"><g fill="#95A3DB" fill-rule="evenodd"><path d="M13.66 22.247a1.753 1.753 0 1 1-3.507 0 1.753 1.753 0 0 1 3.507 0M21.664 22.247a1.753 1.753 0 1 1-3.506 0 1.753 1.753 0 0 1 3.506 0M25.527 7.73a.987.987 0 0 0 .01-.095c.002-.028.009-.054.009-.083 0-.018-.005-.035-.006-.053l-.002-.024a1.04 1.04 0 0 0-1.036-.957H11.97c-.574 0-1.043.466-1.043 1.034 0 .569.47 1.035 1.043 1.035h11.039l-2.825 8.337h-8.874l-4.14-12.22c-.004-.008-.009-.015-.012-.024-.012-.03-.026-.06-.04-.09a.945.945 0 0 0-.064-.114l-.013-.018a1.048 1.048 0 0 0-1.009-.446H3.043C2.47 4.012 2 4.478 2 5.047S2.47 6.08 3.043 6.08h2.344l4.136 12.208.003.004a1.054 1.054 0 0 0 .191.332l.022.026c.038.04.078.078.121.112l.028.022c.043.033.089.06.137.085l.035.019c.045.021.09.038.138.053l.058.017c.04.01.079.016.119.021.032.005.064.009.096.01.012 0 .024.003.037.003h10.445c.015 0 .028-.003.042-.003.055-.001.108-.007.162-.017l.01-.002a1.04 1.04 0 0 0 .801-.682l3.521-10.393c.01-.03.014-.061.021-.091.006-.025.013-.05.017-.076"/></g></svg>