<svg viewBox="0 0 28 28" xmlns="http://www.w3.org/2000/svg"><path d="M17.257 21.592a9.671 9.671 0 0 1-1.947-5.82c0-1.12.192-2.195.539-3.196a13.778 13.778 0 0 1 5.408 5.373 8.287 8.287 0 0 1-4 3.643m-5.153.44a20.359 20.359 0 0 1-.611-4.932c0-2.033.302-3.995.856-5.848.647.148 1.276.34 1.885.577a11.476 11.476 0 0 0-.694 3.943c0 2.35.71 4.53 1.92 6.352a8.27 8.27 0 0 1-1.46.137 8.228 8.228 0 0 1-1.896-.228M5.947 15.82a11.533 11.533 0 0 0 3.508-4.914c.382.005.76.025 1.135.06a22.124 22.124 0 0 0-.868 6.133c0 1.435.146 2.837.408 4.196a8.266 8.266 0 0 1-4.183-5.475m-.058-.273l.038.196-.038-.196M5.739 14c0-.964.174-1.886.477-2.746.418-.095.84-.175 1.272-.23-.438.94-1.048 1.793-1.75 2.542m2.59-5.562c-.044.4-.11.793-.2 1.176-.302.022-.6.055-.897.094a8.31 8.31 0 0 1 1.098-1.27m6.6-2.21a8.184 8.184 0 0 1 3.009.943 11.545 11.545 0 0 0-2.97 3.479 15.2 15.2 0 0 0-2.031-.645 20.277 20.277 0 0 1 1.993-3.776m-4.771.895a8.226 8.226 0 0 1 2.653-.856A22.05 22.05 0 0 0 11.16 9.25c-.4-.048-.804-.083-1.213-.1.142-.722.218-1.467.218-2.23 0-.077-.003-.153-.006-.23M22.26 14c0 .644-.081 1.268-.22 1.868a15.549 15.549 0 0 0-5.458-4.907 9.756 9.756 0 0 1 2.874-3.151A8.23 8.23 0 0 1 22.26 14M14 4C8.477 4 4 8.478 4 14c0 5.523 4.477 10 10 10s10-4.477 10-10c0-5.522-4.477-10-10-10" fill="#E6D99D" fill-rule="evenodd"/></svg>