<svg viewBox="0 0 28 28" xmlns="http://www.w3.org/2000/svg"><g fill="#DBADA0" fill-rule="evenodd"><path d="M14.033 6.143h-.066a.683.683 0 0 1-.682-.681V4.68c0-.374.307-.681.682-.681h.066c.375 0 .681.307.681.681v.78a.683.683 0 0 1-.681.682M14.033 24h-.066a.683.683 0 0 1-.682-.681v-.78c0-.375.307-.682.682-.682h.066c.375 0 .681.307.681.681v.781a.683.683 0 0 1-.681.681M21.857 14.022v-.044c0-.38.312-.692.692-.692h.76c.38 0 .691.312.691.692v.044c0 .38-.311.693-.691.693h-.76a.695.695 0 0 1-.692-.693M4 14.022v-.044c0-.38.311-.692.691-.692h.76c.38 0 .692.312.692.692v.044c0 .38-.312.693-.692.693h-.76A.695.695 0 0 1 4 14.022M19.566 8.434a.716.716 0 0 1 0-1.01l.504-.505a.716.716 0 0 1 1.01 0 .716.716 0 0 1 0 1.01l-.504.505a.716.716 0 0 1-1.01 0M6.92 21.08a.716.716 0 0 1 0-1.01l.504-.505a.716.716 0 0 1 1.01 0 .718.718 0 0 1 0 1.01l-.504.506a.716.716 0 0 1-1.01 0M19.566 19.566a.716.716 0 0 1 1.01 0l.505.504a.716.716 0 0 1 0 1.01.716.716 0 0 1-1.01 0l-.505-.504a.716.716 0 0 1 0-1.01M6.92 6.92a.716.716 0 0 1 1.01 0l.505.504a.718.718 0 0 1 0 1.01.716.716 0 0 1-1.01 0l-.506-.504a.716.716 0 0 1 0-1.01M14 19.714a5.715 5.715 0 1 1 .002-11.43A5.715 5.715 0 0 1 14 19.714m0-12.857A7.142 7.142 0 0 0 6.857 14 7.142 7.142 0 0 0 14 21.143 7.142 7.142 0 0 0 21.143 14 7.142 7.142 0 0 0 14 6.857"/></g></svg>