<svg viewBox="0 0 28 28" xmlns="http://www.w3.org/2000/svg" xmlns:xlink="http://www.w3.org/1999/xlink"><defs><path id="a" d="M0 0v20h11V0z"/></defs><g fill="none" fill-rule="evenodd"><path d="M14 9.8a.8.8 0 1 1 0-1.6.8.8 0 0 1 0 1.6M14 7a2 2 0 1 0 0 4 2 2 0 0 0 0-4" fill="#8BA5AF"/><g transform="translate(9 4)"><mask id="b" fill="#fff"><use xlink:href="#a"/></mask><path d="M8.462 17.2c0 .66-.52 1.2-1.154 1.2H2.692c-.634 0-1.154-.54-1.154-1.2V2.8c0-.66.52-1.2 1.154-1.2h4.616c.634 0 1.154.54 1.154 1.2v14.4zM7.692 0H2.308C1.038 0 0 1.08 0 2.4v15.2C0 18.92 1.038 20 2.308 20h5.384C8.962 20 10 18.92 10 17.6V2.4C10 1.08 8.962 0 7.692 0z" fill="#8BA5AF" mask="url(#b)"/></g><path d="M14 14.8a.8.8 0 1 1 0-1.6.8.8 0 0 1 0 1.6m0-2.8a2 2 0 1 0 0 4 2 2 0 0 0 0-4M14 19.8a.8.8 0 1 1 0-1.6.8.8 0 0 1 0 1.6m0-2.8a2 2 0 1 0 0 4 2 2 0 0 0 0-4M9.2 9H6.8C6.36 9 6 8.55 6 8s.36-1 .8-1h2.4c.44 0 .8.45.8 1s-.36 1-.8 1M21.2 9h-2.4c-.44 0-.8-.45-.8-1s.36-1 .8-1h2.4c.44 0 .8.45.8 1s-.36 1-.8 1M9.2 14H6.8c-.44 0-.8-.45-.8-1s.36-1 .8-1h2.4c.44 0 .8.45.8 1s-.36 1-.8 1M21.2 14h-2.4c-.44 0-.8-.45-.8-1s.36-1 .8-1h2.4c.44 0 .8.45.8 1s-.36 1-.8 1M9.2 19H6.8c-.44 0-.8-.45-.8-1s.36-1 .8-1h2.4c.44 0 .8.45.8 1s-.36 1-.8 1M21.2 19h-2.4c-.44 0-.8-.45-.8-1s.36-1 .8-1h2.4c.44 0 .8.45.8 1s-.36 1-.8 1" fill="#8BA5AF"/></g></svg>