<svg xmlns="http://www.w3.org/2000/svg" width="32" height="32" viewBox="0 0 32 32"><defs><style>.cls-1{fill:#606060;opacity:0;}.cls-2{fill:#fff;}</style></defs><title>0</title><g id="图层_2" data-name="图层 2"><g id="图层_1-2" data-name="图层 1"><rect class="cls-1" width="32" height="32"/><path class="cls-2" d="M22.14,10.13A12.44,12.44,0,0,1,15.36,8,9.59,9.59,0,0,0,4.76,8a1.44,1.44,0,0,1-1.7-2.33A12.45,12.45,0,0,1,16.91,5.6a9.14,9.14,0,0,0,10.29.07A1.44,1.44,0,0,1,29,8,11.94,11.94,0,0,1,22.14,10.13Z"/><path class="cls-2" d="M22.14,19.31a12.45,12.45,0,0,1-6.78-2.1,9.59,9.59,0,0,0-10.61,0,1.44,1.44,0,0,1-1.7-2.33,12.45,12.45,0,0,1,13.85-.05,9.14,9.14,0,0,0,10.29.07A1.44,1.44,0,0,1,29,17.14,11.94,11.94,0,0,1,22.14,19.31Z"/><path class="cls-2" d="M22.14,28.49a12.45,12.45,0,0,1-6.78-2.1,9.6,9.6,0,0,0-10.61,0A1.44,1.44,0,0,1,3.06,24,12.45,12.45,0,0,1,16.91,24,9.14,9.14,0,0,0,27.21,24,1.44,1.44,0,0,1,29,26.32,11.94,11.94,0,0,1,22.14,28.49Z"/></g></g></svg>