<svg xmlns="http://www.w3.org/2000/svg" width="32" height="32" viewBox="0 0 32 32"><defs><style>.cls-1{fill:#606060;opacity:0;}.cls-2{fill:#fff;}</style></defs><title>9</title><g id="图层_2" data-name="图层 2"><g id="图层_1-2" data-name="图层 1"><rect class="cls-1" width="32" height="32"/><path class="cls-2" d="M23.93,10.7h0s.85-3.19,5.28-6.39a1.34,1.34,0,0,0-1-2.41C21,2.87,10,5.44,7.18,12.13a10.26,10.26,0,0,0,.89,9.17h0S7.22,24.5,2.79,27.7a1.34,1.34,0,0,0,1,2.41c7.16-1,18.07-3.52,21-10.09l.08-.15a10.26,10.26,0,0,0-.89-9.18ZM18.6,17.52c-.84,1.9-2.74,2.91-4.25,2.24S12.28,17,13.12,15.11s2.74-2.91,4.26-2.24,2.07,2.74,1.23,4.65Zm0,0"/></g></g></svg>