<svg xmlns="http://www.w3.org/2000/svg" viewBox="0 0 48 48"><defs><style>.cls-1{fill:#d3b771;opacity:0;}.cls-2{fill:#81d4fa;}.cls-3{fill:#c5cfd1;}</style></defs><title>301</title><g id="图层_2" data-name="图层 2"><g id="图层_1-2" data-name="图层 1"><rect class="cls-1" width="48" height="48"/><path class="cls-2" d="M17.3,45.39h0a1.61,1.61,0,0,1-.58-2.19L20,37.6A1.61,1.61,0,0,1,22.15,37h0a1.6,1.6,0,0,1,.58,2.18l-3.24,5.6A1.61,1.61,0,0,1,17.3,45.39Z"/><path class="cls-2" d="M24.25,45.39h0a1.61,1.61,0,0,1-.58-2.19l3.24-5.6A1.61,1.61,0,0,1,29.1,37h0a1.6,1.6,0,0,1,.58,2.18l-3.24,5.6A1.61,1.61,0,0,1,24.25,45.39Z"/><path class="cls-3" d="M36,16a9.77,9.77,0,0,0-1.89.19,16,16,0,1,0-15.71,19H36A9.6,9.6,0,0,0,36,16Z"/></g></g></svg>