<svg xmlns="http://www.w3.org/2000/svg" viewBox="0 0 48 48"><defs><style>.cls-1{fill:#d3b771;opacity:0;}.cls-2{fill:#c1c1c1;}</style></defs><title>99</title><g id="图层_2" data-name="图层 2"><g id="图层_1-2" data-name="图层 1"><rect class="cls-1" width="48" height="48"/><path class="cls-2" d="M24,5A19,19,0,1,0,43,24,19,19,0,0,0,24,5Zm-.21,31.92a1.64,1.64,0,1,1,1.67-1.63A1.65,1.65,0,0,1,23.79,36.92Zm1.67-8.1v1.76a1.67,1.67,0,0,1-3.34,0V27.31a1.66,1.66,0,0,1,1.67-1.63H24a4.91,4.91,0,1,0-5-4.91c0,.07,0,.14,0,.21h0a1.67,1.67,0,0,1-3.34-.06v-.15a8.36,8.36,0,1,1,9.82,8.05Z"/></g></g></svg>